<svg xmlns="http://www.w3.org/2000/svg" xmlns:xlink="http://www.w3.org/1999/xlink" viewBox="0 0 1020 1020"><defs><style>.cls-1{fill:url(#linear-gradient);}.cls-2{fill:#001f8a;}</style><linearGradient id="linear-gradient" x1="13.18" y1="13.18" x2="1006.82" y2="1006.82" gradientUnits="userSpaceOnUse"><stop offset="0" stop-color="#29abe2"/><stop offset="0.14" stop-color="#28a7e3"/><stop offset="0.29" stop-color="#2599e5"/><stop offset="0.45" stop-color="#1f83e9"/><stop offset="0.62" stop-color="#1865ee"/><stop offset="0.79" stop-color="#0f3df5"/><stop offset="0.96" stop-color="#030dfd"/><stop offset="1" stop-color="blue"/></linearGradient></defs><title>Asset 3</title><g id="Layer_2" data-name="Layer 2"><g id="Layer_1-2" data-name="Layer 1"><path class="cls-1" d="M975,0H45A45,45,0,0,0,0,45V975a45,45,0,0,0,45,45H975a45,45,0,0,0,45-45V45A45,45,0,0,0,975,0ZM912.51,63,66.26,909.28V812.74L816.13,62.87h92.61C910,62.87,911.27,62.92,912.51,63ZM66.26,723.82V618.7L622.09,62.87H727.21Zm0-615.95a45,45,0,0,1,45-45H533.17L66.26,529.78ZM953.74,912.13a45,45,0,0,1-45,45H111.26c-1.27,0-2.53,0-3.77-.16L953.74,110.72Z"/><path class="cls-2" d="M953.74,906.08v6a45,45,0,0,1-38.36,44.51L511.6,552.86l44.46-44.46Z"/><polygon class="cls-2" points="824.09 957.13 735.17 957.13 421.25 643.21 465.71 598.75 824.09 957.13"/><polygon class="cls-2" points="643.08 957.13 554.18 957.13 330.75 733.71 375.21 689.25 643.08 957.13"/></g></g></svg>