<svg xmlns="http://www.w3.org/2000/svg" xmlns:xlink="http://www.w3.org/1999/xlink" viewBox="0 0 1021 1021"><defs><style>.cls-1,.cls-2{stroke:#000;stroke-miterlimit:10;}.cls-1{fill:url(#linear-gradient);}.cls-2{fill:#001f8a;}</style><linearGradient id="linear-gradient" x1="13.68" y1="13.68" x2="1007.32" y2="1007.32" gradientUnits="userSpaceOnUse"><stop offset="0" stop-color="#29abe2"/><stop offset="0.14" stop-color="#28a7e3"/><stop offset="0.29" stop-color="#2599e5"/><stop offset="0.45" stop-color="#1f83e9"/><stop offset="0.62" stop-color="#1865ee"/><stop offset="0.79" stop-color="#0f3df5"/><stop offset="0.96" stop-color="#030dfd"/><stop offset="1" stop-color="blue"/></linearGradient></defs><title>Asset 2</title><g id="Layer_2" data-name="Layer 2"><g id="Layer_1-2" data-name="Layer 1"><path class="cls-1" d="M975.5.5H45.5a45,45,0,0,0-45,45v930a45,45,0,0,0,45,45h930a45,45,0,0,0,45-45V45.5A45,45,0,0,0,975.5.5ZM913,63.53,66.76,909.78V813.24L816.63,63.37h92.61C910.51,63.37,911.77,63.42,913,63.53ZM66.76,724.32V619.2L622.59,63.37H727.71Zm0-615.95a45,45,0,0,1,45-45H533.67L66.76,530.28ZM954.24,912.63a45,45,0,0,1-45,45H111.76c-1.27,0-2.53,0-3.77-.16L954.24,111.22Z"/><path class="cls-2" d="M954.24,906.58v6a45,45,0,0,1-38.36,44.51L512.1,553.36l44.46-44.46Z"/><polygon class="cls-2" points="824.59 957.63 735.67 957.63 421.75 643.71 466.21 599.25 824.59 957.63"/><polygon class="cls-2" points="643.58 957.63 554.68 957.63 331.25 734.21 375.71 689.75 643.58 957.63"/></g></g></svg>